<mxfile host="app.diagrams.net" modified="2022-10-03T14:54:04.561Z" agent="5.0 (Windows NT 10.0; Win64; x64) AppleWebKit/537.36 (KHTML, like Gecko) Chrome/104.0.5112.102 Safari/537.36 OPR/90.0.4480.84" etag="36zcgxYeYojuUffQGXkH" version="20.4.0" type="github">
  <diagram id="xdMMjfoDQ7HsXDBG1HI7" name="Page-1">
    <mxGraphModel dx="1062" dy="615" grid="1" gridSize="10" guides="1" tooltips="1" connect="1" arrows="1" fold="1" page="1" pageScale="1" pageWidth="850" pageHeight="1100" math="0" shadow="0">
      <root>
        <mxCell id="0" />
        <mxCell id="1" parent="0" />
        <mxCell id="GLjYZ8dR_tixM5bC20mr-1" value="start" style="ellipse;whiteSpace=wrap;html=1;" vertex="1" parent="1">
          <mxGeometry x="360" width="120" height="80" as="geometry" />
        </mxCell>
        <mxCell id="GLjYZ8dR_tixM5bC20mr-3" value="stop" style="ellipse;whiteSpace=wrap;html=1;" vertex="1" parent="1">
          <mxGeometry x="355" y="610" width="120" height="80" as="geometry" />
        </mxCell>
        <mxCell id="GLjYZ8dR_tixM5bC20mr-7" value="side b * side c* 0.5" style="rounded=1;whiteSpace=wrap;html=1;absoluteArcSize=1;arcSize=14;strokeWidth=2;" vertex="1" parent="1">
          <mxGeometry x="360" y="240" width="100" height="60" as="geometry" />
        </mxCell>
        <mxCell id="GLjYZ8dR_tixM5bC20mr-10" value="user imput side c,d,a" style="shape=parallelogram;html=1;strokeWidth=2;perimeter=parallelogramPerimeter;whiteSpace=wrap;rounded=1;arcSize=12;size=0.23;" vertex="1" parent="1">
          <mxGeometry x="350" y="120" width="125" height="80" as="geometry" />
        </mxCell>
        <mxCell id="GLjYZ8dR_tixM5bC20mr-13" value="sinSum= Sine(AngleA)" style="rounded=1;whiteSpace=wrap;html=1;absoluteArcSize=1;arcSize=14;strokeWidth=2;" vertex="1" parent="1">
          <mxGeometry x="320" y="320" width="180" height="70" as="geometry" />
        </mxCell>
      </root>
    </mxGraphModel>
  </diagram>
</mxfile>
